<svg xmlns="http://www.w3.org/2000/svg" xmlns:xlink="http://www.w3.org/1999/xlink" width="71" zoomAndPan="magnify" viewBox="0 0 53.25 30.000001" height="40" preserveAspectRatio="xMidYMid meet" version="1.0"><defs><clipPath id="7c0064e6b0"><path d="M 23.644531 10.082031 L 28.324219 10.082031 L 28.324219 13.167969 L 23.644531 13.167969 Z M 23.644531 10.082031 " clip-rule="nonzero"/></clipPath><clipPath id="e7e5317ccc"><path d="M 26.027344 13.109375 L 26.742188 12.394531 L 26.828125 12.296875 L 28.304688 10.820312 L 27.589844 10.105469 L 26.023438 11.675781 L 24.457031 10.109375 L 23.742188 10.824219 Z M 26.027344 13.109375 " clip-rule="nonzero"/></clipPath><clipPath id="0a73cadd2c"><path d="M 17.800781 4.128906 L 23.433594 4.128906 L 23.433594 9.871094 L 17.800781 9.871094 Z M 17.800781 4.128906 " clip-rule="nonzero"/></clipPath><clipPath id="9fbc99afdc"><path d="M 23.410156 9.054688 L 18.515625 4.160156 L 17.800781 4.875 L 22.695312 9.769531 Z M 23.410156 9.054688 " clip-rule="nonzero"/></clipPath><clipPath id="caf4dcc9b6"><path d="M 20.03125 2.746094 L 25.664062 2.746094 L 25.664062 8.378906 L 20.03125 8.378906 Z M 20.03125 2.746094 " clip-rule="nonzero"/></clipPath><clipPath id="8ff108d6f9"><path d="M 20.78125 2.800781 L 20.066406 3.511719 L 24.847656 8.292969 L 25.5625 7.578125 Z M 20.78125 2.800781 " clip-rule="nonzero"/></clipPath><clipPath id="7561e7bfa2"><path d="M 22.691406 1.898438 L 25.664062 1.898438 L 25.664062 4.765625 L 22.691406 4.765625 Z M 22.691406 1.898438 " clip-rule="nonzero"/></clipPath><clipPath id="4212540b1e"><path d="M 25.589844 4.015625 L 23.496094 1.917969 L 22.777344 2.632812 L 24.875 4.726562 Z M 25.589844 4.015625 " clip-rule="nonzero"/></clipPath><clipPath id="5c4152eee0"><path d="M 28.535156 4.128906 L 34.277344 4.128906 L 34.277344 9.871094 L 28.535156 9.871094 Z M 28.535156 4.128906 " clip-rule="nonzero"/></clipPath><clipPath id="3a59532dc8"><path d="M 29.355469 9.769531 L 34.25 4.875 L 33.535156 4.160156 L 28.640625 9.054688 Z M 29.355469 9.769531 " clip-rule="nonzero"/></clipPath><clipPath id="4adeafc0d6"><path d="M 26.410156 2.746094 L 32 2.746094 L 32 8.378906 L 26.410156 8.378906 Z M 26.410156 2.746094 " clip-rule="nonzero"/></clipPath><clipPath id="fefbfdf2c3"><path d="M 27.203125 8.292969 L 31.980469 3.511719 L 31.265625 2.800781 L 26.488281 7.578125 Z M 27.203125 8.292969 " clip-rule="nonzero"/></clipPath><clipPath id="869ee6ca2b"><path d="M 26.410156 1.898438 L 29.28125 1.898438 L 29.28125 4.765625 L 26.410156 4.765625 Z M 26.410156 1.898438 " clip-rule="nonzero"/></clipPath><clipPath id="b8546ca6cf"><path d="M 29.269531 2.628906 L 28.554688 1.914062 L 26.457031 4.015625 L 27.175781 4.730469 Z M 29.269531 2.628906 " clip-rule="nonzero"/></clipPath><clipPath id="80b995cb35"><path d="M 23.644531 15.292969 L 28.324219 15.292969 L 28.324219 18.480469 L 23.644531 18.480469 Z M 23.644531 15.292969 " clip-rule="nonzero"/></clipPath><clipPath id="314e887901"><path d="M 28.304688 17.679688 L 26.019531 15.394531 L 25.308594 16.109375 L 25.21875 16.203125 L 23.742188 17.679688 L 24.460938 18.394531 L 26.023438 16.824219 L 27.59375 18.394531 Z M 28.304688 17.679688 " clip-rule="nonzero"/></clipPath><clipPath id="b866566d22"><path d="M 28.535156 18.691406 L 34.277344 18.691406 L 34.277344 24.433594 L 28.535156 24.433594 Z M 28.535156 18.691406 " clip-rule="nonzero"/></clipPath><clipPath id="728b9f575a"><path d="M 28.640625 19.445312 L 33.535156 24.339844 L 34.25 23.625 L 29.355469 18.730469 Z M 28.640625 19.445312 " clip-rule="nonzero"/></clipPath><clipPath id="c904095051"><path d="M 26.410156 20.179688 L 32 20.179688 L 32 25.710938 L 26.410156 25.710938 Z M 26.410156 20.179688 " clip-rule="nonzero"/></clipPath><clipPath id="8e6e5d20ed"><path d="M 31.265625 25.703125 L 31.980469 24.988281 L 27.207031 20.210938 L 26.488281 20.925781 Z M 31.265625 25.703125 " clip-rule="nonzero"/></clipPath><clipPath id="a7b1705388"><path d="M 26.410156 23.6875 L 29.28125 23.6875 L 29.28125 26.667969 L 26.410156 26.667969 Z M 26.410156 23.6875 " clip-rule="nonzero"/></clipPath><clipPath id="789b4999fe"><path d="M 26.457031 24.488281 L 28.558594 26.585938 L 29.273438 25.871094 L 27.175781 23.773438 Z M 26.457031 24.488281 " clip-rule="nonzero"/></clipPath><clipPath id="4c5c95c8b0"><path d="M 17.800781 18.691406 L 23.433594 18.691406 L 23.433594 24.433594 L 17.800781 24.433594 Z M 17.800781 18.691406 " clip-rule="nonzero"/></clipPath><clipPath id="dc2af705cd"><path d="M 22.695312 18.734375 L 17.800781 23.628906 L 18.515625 24.34375 L 23.410156 19.449219 Z M 22.695312 18.734375 " clip-rule="nonzero"/></clipPath><clipPath id="f6e126c13d"><path d="M 20.03125 20.179688 L 25.664062 20.179688 L 25.664062 25.710938 L 20.03125 25.710938 Z M 20.03125 20.179688 " clip-rule="nonzero"/></clipPath><clipPath id="dda2f8d9c7"><path d="M 24.847656 20.210938 L 20.066406 24.992188 L 20.78125 25.707031 L 25.5625 20.925781 Z M 24.847656 20.210938 " clip-rule="nonzero"/></clipPath><clipPath id="9978e75f98"><path d="M 22.691406 23.6875 L 25.664062 23.6875 L 25.664062 26.667969 L 22.691406 26.667969 Z M 22.691406 23.6875 " clip-rule="nonzero"/></clipPath><clipPath id="9a5128b779"><path d="M 22.777344 25.871094 L 23.496094 26.585938 L 25.589844 24.488281 L 24.875 23.773438 Z M 22.777344 25.871094 " clip-rule="nonzero"/></clipPath><clipPath id="6d2379ff51"><path d="M 21.839844 11.890625 L 24.921875 11.890625 L 24.921875 16.566406 L 21.839844 16.566406 Z M 21.839844 11.890625 " clip-rule="nonzero"/></clipPath><clipPath id="1d01a3850b"><path d="M 22.59375 16.53125 L 24.882812 14.246094 L 24.167969 13.53125 L 24.070312 13.445312 L 22.59375 11.96875 L 21.878906 12.683594 L 23.449219 14.25 L 21.882812 15.816406 Z M 22.59375 16.53125 " clip-rule="nonzero"/></clipPath><clipPath id="51bf13a611"><path d="M 15.886719 16.78125 L 21.628906 16.78125 L 21.628906 22.519531 L 15.886719 22.519531 Z M 15.886719 16.78125 " clip-rule="nonzero"/></clipPath><clipPath id="9034803583"><path d="M 20.832031 16.867188 L 15.9375 21.761719 L 16.652344 22.476562 L 21.546875 17.582031 Z M 20.832031 16.867188 " clip-rule="nonzero"/></clipPath><clipPath id="e306e218b2"><path d="M 14.507812 14.699219 L 20.140625 14.699219 L 20.140625 20.285156 L 14.507812 20.285156 Z M 14.507812 14.699219 " clip-rule="nonzero"/></clipPath><clipPath id="25363bb8f4"><path d="M 19.351562 14.714844 L 14.574219 19.496094 L 15.289062 20.210938 L 20.066406 15.429688 Z M 19.351562 14.714844 " clip-rule="nonzero"/></clipPath><clipPath id="0ac9d4de90"><path d="M 13.652344 14.652344 L 16.527344 14.652344 L 16.527344 17.523438 L 13.652344 17.523438 Z M 13.652344 14.652344 " clip-rule="nonzero"/></clipPath><clipPath id="bc4acc4be6"><path d="M 15.789062 14.6875 L 13.691406 16.78125 L 14.40625 17.496094 L 16.503906 15.402344 Z M 15.789062 14.6875 " clip-rule="nonzero"/></clipPath><clipPath id="ae5125fe84"><path d="M 15.886719 6 L 21.628906 6 L 21.628906 11.679688 L 15.886719 11.679688 Z M 15.886719 6 " clip-rule="nonzero"/></clipPath><clipPath id="4c8d7bdad2"><path d="M 16.648438 6.027344 L 15.933594 6.742188 L 20.832031 11.636719 L 21.546875 10.921875 Z M 16.648438 6.027344 " clip-rule="nonzero"/></clipPath><clipPath id="d790230eac"><path d="M 14.507812 8.273438 L 20.140625 8.273438 L 20.140625 13.804688 L 14.507812 13.804688 Z M 14.507812 8.273438 " clip-rule="nonzero"/></clipPath><clipPath id="656b2c8ca3"><path d="M 15.285156 8.292969 L 14.570312 9.007812 L 19.351562 13.785156 L 20.066406 13.070312 Z M 15.285156 8.292969 " clip-rule="nonzero"/></clipPath><clipPath id="dc4a82614e"><path d="M 13.652344 11 L 16.527344 11 L 16.527344 13.910156 L 13.652344 13.910156 Z M 13.652344 11 " clip-rule="nonzero"/></clipPath><clipPath id="16e1faa5a7"><path d="M 14.402344 11.003906 L 13.691406 11.71875 L 15.789062 13.816406 L 16.503906 13.101562 Z M 14.402344 11.003906 " clip-rule="nonzero"/></clipPath><clipPath id="b58412b02d"><path d="M 27.152344 11.890625 L 30.210938 11.890625 L 30.210938 16.566406 L 27.152344 16.566406 Z M 27.152344 11.890625 " clip-rule="nonzero"/></clipPath><clipPath id="4571145e9c"><path d="M 29.453125 11.972656 L 27.167969 14.253906 L 27.882812 14.96875 L 27.976562 15.054688 L 29.453125 16.53125 L 30.167969 15.816406 L 28.601562 14.25 L 30.167969 12.683594 Z M 29.453125 11.972656 " clip-rule="nonzero"/></clipPath><clipPath id="966cdb5a70"><path d="M 30.453125 6 L 36.191406 6 L 36.191406 11.679688 L 30.453125 11.679688 Z M 30.453125 6 " clip-rule="nonzero"/></clipPath><clipPath id="09d818f0a0"><path d="M 31.222656 11.636719 L 36.117188 6.742188 L 35.402344 6.027344 L 30.507812 10.921875 Z M 31.222656 11.636719 " clip-rule="nonzero"/></clipPath><clipPath id="4694096cff"><path d="M 31.9375 8.273438 L 37.5625 8.273438 L 37.5625 13.804688 L 31.9375 13.804688 Z M 31.9375 8.273438 " clip-rule="nonzero"/></clipPath><clipPath id="1fdfd1688a"><path d="M 32.699219 13.785156 L 37.476562 9.007812 L 36.761719 8.292969 L 31.984375 13.070312 Z M 32.699219 13.785156 " clip-rule="nonzero"/></clipPath><clipPath id="f8f1fa95b2"><path d="M 35.445312 11 L 38.421875 11 L 38.421875 13.910156 L 35.445312 13.910156 Z M 35.445312 11 " clip-rule="nonzero"/></clipPath><clipPath id="e697df88c9"><path d="M 36.261719 13.816406 L 38.359375 11.71875 L 37.644531 11.003906 L 35.546875 13.101562 Z M 36.261719 13.816406 " clip-rule="nonzero"/></clipPath><clipPath id="3dae70e48a"><path d="M 30.453125 16.78125 L 36.191406 16.78125 L 36.191406 22.519531 L 30.453125 22.519531 Z M 30.453125 16.78125 " clip-rule="nonzero"/></clipPath><clipPath id="bd118e17d4"><path d="M 35.402344 22.476562 L 36.117188 21.761719 L 31.222656 16.867188 L 30.507812 17.582031 Z M 35.402344 22.476562 " clip-rule="nonzero"/></clipPath><clipPath id="9a33c88ea6"><path d="M 31.9375 14.699219 L 37.5625 14.699219 L 37.5625 20.285156 L 31.9375 20.285156 Z M 31.9375 14.699219 " clip-rule="nonzero"/></clipPath><clipPath id="7464bdac09"><path d="M 36.761719 20.210938 L 37.476562 19.496094 L 32.699219 14.714844 L 31.984375 15.429688 Z M 36.761719 20.210938 " clip-rule="nonzero"/></clipPath><clipPath id="1157123a5f"><path d="M 35.445312 14.652344 L 38.421875 14.652344 L 38.421875 17.523438 L 35.445312 17.523438 Z M 35.445312 14.652344 " clip-rule="nonzero"/></clipPath><clipPath id="fe7196ac94"><path d="M 35.550781 15.402344 L 37.648438 17.496094 L 38.363281 16.78125 L 36.265625 14.6875 Z M 35.550781 15.402344 " clip-rule="nonzero"/></clipPath><clipPath id="3e9c3717ff"><path d="M 25.558594 26.464844 L 26.410156 26.464844 L 26.410156 27.199219 L 25.558594 27.199219 Z M 25.558594 26.464844 " clip-rule="nonzero"/></clipPath><clipPath id="6eb1b597f1"><path d="M 25.886719 26.472656 L 25.632812 26.722656 L 25.632812 26.917969 L 25.886719 27.171875 L 26.082031 27.171875 L 26.335938 26.917969 L 26.335938 26.722656 L 26.082031 26.472656 Z M 25.886719 26.472656 " clip-rule="nonzero"/></clipPath><clipPath id="6662ab9e50"><path d="M 25.558594 1.472656 L 26.410156 1.472656 L 26.410156 2.199219 L 25.558594 2.199219 Z M 25.558594 1.472656 " clip-rule="nonzero"/></clipPath><clipPath id="29ce81254d"><path d="M 25.886719 1.496094 L 25.632812 1.75 L 25.632812 1.945312 L 25.886719 2.199219 L 26.082031 2.199219 L 26.335938 1.945312 L 26.335938 1.75 L 26.082031 1.496094 Z M 25.886719 1.496094 " clip-rule="nonzero"/></clipPath><clipPath id="8dbba0bdde"><path d="M 13.121094 13.964844 L 13.867188 13.964844 L 13.867188 14.699219 L 13.121094 14.699219 Z M 13.121094 13.964844 " clip-rule="nonzero"/></clipPath><clipPath id="2815124b10"><path d="M 13.402344 13.984375 L 13.152344 14.238281 L 13.152344 14.433594 L 13.402344 14.6875 L 13.597656 14.6875 L 13.851562 14.433594 L 13.851562 14.238281 L 13.597656 13.984375 Z M 13.402344 13.984375 " clip-rule="nonzero"/></clipPath><clipPath id="18fbef6948"><path d="M 38.105469 13.964844 L 38.847656 13.964844 L 38.847656 14.699219 L 38.105469 14.699219 Z M 38.105469 13.964844 " clip-rule="nonzero"/></clipPath><clipPath id="035c9b048d"><path d="M 38.570312 13.984375 L 38.375 13.984375 L 38.121094 14.238281 L 38.121094 14.433594 L 38.375 14.6875 L 38.570312 14.6875 L 38.820312 14.433594 L 38.820312 14.238281 Z M 38.570312 13.984375 " clip-rule="nonzero"/></clipPath></defs><g clip-path="url(#7c0064e6b0)"><g clip-path="url(#e7e5317ccc)"><path fill="#d3d3b3" d="M 12.378906 0.726562 L 39.589844 0.726562 L 39.589844 27.941406 L 12.378906 27.941406 Z M 12.378906 0.726562 " fill-opacity="1" fill-rule="nonzero"/></g></g><g clip-path="url(#0a73cadd2c)"><g clip-path="url(#9fbc99afdc)"><path fill="#d3d3b3" d="M 12.378906 0.726562 L 39.589844 0.726562 L 39.589844 27.941406 L 12.378906 27.941406 Z M 12.378906 0.726562 " fill-opacity="1" fill-rule="nonzero"/></g></g><g clip-path="url(#caf4dcc9b6)"><g clip-path="url(#8ff108d6f9)"><path fill="#d3d3b3" d="M 12.378906 0.726562 L 39.589844 0.726562 L 39.589844 27.941406 L 12.378906 27.941406 Z M 12.378906 0.726562 " fill-opacity="1" fill-rule="nonzero"/></g></g><g clip-path="url(#7561e7bfa2)"><g clip-path="url(#4212540b1e)"><path fill="#d3d3b3" d="M 12.378906 0.726562 L 39.589844 0.726562 L 39.589844 27.941406 L 12.378906 27.941406 Z M 12.378906 0.726562 " fill-opacity="1" fill-rule="nonzero"/></g></g><g clip-path="url(#5c4152eee0)"><g clip-path="url(#3a59532dc8)"><path fill="#d3d3b3" d="M 12.378906 0.726562 L 39.589844 0.726562 L 39.589844 27.941406 L 12.378906 27.941406 Z M 12.378906 0.726562 " fill-opacity="1" fill-rule="nonzero"/></g></g><g clip-path="url(#4adeafc0d6)"><g clip-path="url(#fefbfdf2c3)"><path fill="#d3d3b3" d="M 12.378906 0.726562 L 39.589844 0.726562 L 39.589844 27.941406 L 12.378906 27.941406 Z M 12.378906 0.726562 " fill-opacity="1" fill-rule="nonzero"/></g></g><g clip-path="url(#869ee6ca2b)"><g clip-path="url(#b8546ca6cf)"><path fill="#d3d3b3" d="M 12.378906 0.726562 L 39.589844 0.726562 L 39.589844 27.941406 L 12.378906 27.941406 Z M 12.378906 0.726562 " fill-opacity="1" fill-rule="nonzero"/></g></g><g clip-path="url(#80b995cb35)"><g clip-path="url(#314e887901)"><path fill="#d3d3b3" d="M 12.378906 0.726562 L 39.589844 0.726562 L 39.589844 27.941406 L 12.378906 27.941406 Z M 12.378906 0.726562 " fill-opacity="1" fill-rule="nonzero"/></g></g><g clip-path="url(#b866566d22)"><g clip-path="url(#728b9f575a)"><path fill="#d3d3b3" d="M 12.378906 0.726562 L 39.589844 0.726562 L 39.589844 27.941406 L 12.378906 27.941406 Z M 12.378906 0.726562 " fill-opacity="1" fill-rule="nonzero"/></g></g><g clip-path="url(#c904095051)"><g clip-path="url(#8e6e5d20ed)"><path fill="#d3d3b3" d="M 12.378906 0.726562 L 39.589844 0.726562 L 39.589844 27.941406 L 12.378906 27.941406 Z M 12.378906 0.726562 " fill-opacity="1" fill-rule="nonzero"/></g></g><g clip-path="url(#a7b1705388)"><g clip-path="url(#789b4999fe)"><path fill="#d3d3b3" d="M 12.378906 0.726562 L 39.589844 0.726562 L 39.589844 27.941406 L 12.378906 27.941406 Z M 12.378906 0.726562 " fill-opacity="1" fill-rule="nonzero"/></g></g><g clip-path="url(#4c5c95c8b0)"><g clip-path="url(#dc2af705cd)"><path fill="#d3d3b3" d="M 12.378906 0.726562 L 39.589844 0.726562 L 39.589844 27.941406 L 12.378906 27.941406 Z M 12.378906 0.726562 " fill-opacity="1" fill-rule="nonzero"/></g></g><g clip-path="url(#f6e126c13d)"><g clip-path="url(#dda2f8d9c7)"><path fill="#d3d3b3" d="M 12.378906 0.726562 L 39.589844 0.726562 L 39.589844 27.941406 L 12.378906 27.941406 Z M 12.378906 0.726562 " fill-opacity="1" fill-rule="nonzero"/></g></g><g clip-path="url(#9978e75f98)"><g clip-path="url(#9a5128b779)"><path fill="#d3d3b3" d="M 12.378906 0.726562 L 39.589844 0.726562 L 39.589844 27.941406 L 12.378906 27.941406 Z M 12.378906 0.726562 " fill-opacity="1" fill-rule="nonzero"/></g></g><g clip-path="url(#6d2379ff51)"><g clip-path="url(#1d01a3850b)"><path fill="#d3d3b3" d="M 12.378906 0.726562 L 39.589844 0.726562 L 39.589844 27.941406 L 12.378906 27.941406 Z M 12.378906 0.726562 " fill-opacity="1" fill-rule="nonzero"/></g></g><g clip-path="url(#51bf13a611)"><g clip-path="url(#9034803583)"><path fill="#d3d3b3" d="M 12.378906 0.726562 L 39.589844 0.726562 L 39.589844 27.941406 L 12.378906 27.941406 Z M 12.378906 0.726562 " fill-opacity="1" fill-rule="nonzero"/></g></g><g clip-path="url(#e306e218b2)"><g clip-path="url(#25363bb8f4)"><path fill="#d3d3b3" d="M 12.378906 0.726562 L 39.589844 0.726562 L 39.589844 27.941406 L 12.378906 27.941406 Z M 12.378906 0.726562 " fill-opacity="1" fill-rule="nonzero"/></g></g><g clip-path="url(#0ac9d4de90)"><g clip-path="url(#bc4acc4be6)"><path fill="#d3d3b3" d="M 12.378906 0.726562 L 39.589844 0.726562 L 39.589844 27.941406 L 12.378906 27.941406 Z M 12.378906 0.726562 " fill-opacity="1" fill-rule="nonzero"/></g></g><g clip-path="url(#ae5125fe84)"><g clip-path="url(#4c8d7bdad2)"><path fill="#d3d3b3" d="M 12.378906 0.726562 L 39.589844 0.726562 L 39.589844 27.941406 L 12.378906 27.941406 Z M 12.378906 0.726562 " fill-opacity="1" fill-rule="nonzero"/></g></g><g clip-path="url(#d790230eac)"><g clip-path="url(#656b2c8ca3)"><path fill="#d3d3b3" d="M 12.378906 0.726562 L 39.589844 0.726562 L 39.589844 27.941406 L 12.378906 27.941406 Z M 12.378906 0.726562 " fill-opacity="1" fill-rule="nonzero"/></g></g><g clip-path="url(#dc4a82614e)"><g clip-path="url(#16e1faa5a7)"><path fill="#d3d3b3" d="M 12.378906 0.726562 L 39.589844 0.726562 L 39.589844 27.941406 L 12.378906 27.941406 Z M 12.378906 0.726562 " fill-opacity="1" fill-rule="nonzero"/></g></g><g clip-path="url(#b58412b02d)"><g clip-path="url(#4571145e9c)"><path fill="#d3d3b3" d="M 12.378906 0.726562 L 39.589844 0.726562 L 39.589844 27.941406 L 12.378906 27.941406 Z M 12.378906 0.726562 " fill-opacity="1" fill-rule="nonzero"/></g></g><g clip-path="url(#966cdb5a70)"><g clip-path="url(#09d818f0a0)"><path fill="#d3d3b3" d="M 12.378906 0.726562 L 39.589844 0.726562 L 39.589844 27.941406 L 12.378906 27.941406 Z M 12.378906 0.726562 " fill-opacity="1" fill-rule="nonzero"/></g></g><g clip-path="url(#4694096cff)"><g clip-path="url(#1fdfd1688a)"><path fill="#d3d3b3" d="M 12.378906 0.726562 L 39.589844 0.726562 L 39.589844 27.941406 L 12.378906 27.941406 Z M 12.378906 0.726562 " fill-opacity="1" fill-rule="nonzero"/></g></g><g clip-path="url(#f8f1fa95b2)"><g clip-path="url(#e697df88c9)"><path fill="#d3d3b3" d="M 12.378906 0.726562 L 39.589844 0.726562 L 39.589844 27.941406 L 12.378906 27.941406 Z M 12.378906 0.726562 " fill-opacity="1" fill-rule="nonzero"/></g></g><g clip-path="url(#3dae70e48a)"><g clip-path="url(#bd118e17d4)"><path fill="#d3d3b3" d="M 12.378906 0.726562 L 39.589844 0.726562 L 39.589844 27.941406 L 12.378906 27.941406 Z M 12.378906 0.726562 " fill-opacity="1" fill-rule="nonzero"/></g></g><g clip-path="url(#9a33c88ea6)"><g clip-path="url(#7464bdac09)"><path fill="#d3d3b3" d="M 12.378906 0.726562 L 39.589844 0.726562 L 39.589844 27.941406 L 12.378906 27.941406 Z M 12.378906 0.726562 " fill-opacity="1" fill-rule="nonzero"/></g></g><g clip-path="url(#1157123a5f)"><g clip-path="url(#fe7196ac94)"><path fill="#d3d3b3" d="M 12.378906 0.726562 L 39.589844 0.726562 L 39.589844 27.941406 L 12.378906 27.941406 Z M 12.378906 0.726562 " fill-opacity="1" fill-rule="nonzero"/></g></g><g clip-path="url(#3e9c3717ff)"><g clip-path="url(#6eb1b597f1)"><path fill="#d3d3b3" d="M 12.378906 0.726562 L 39.589844 0.726562 L 39.589844 27.941406 L 12.378906 27.941406 Z M 12.378906 0.726562 " fill-opacity="1" fill-rule="nonzero"/></g></g><g clip-path="url(#6662ab9e50)"><g clip-path="url(#29ce81254d)"><path fill="#d3d3b3" d="M 12.378906 0.726562 L 39.589844 0.726562 L 39.589844 27.941406 L 12.378906 27.941406 Z M 12.378906 0.726562 " fill-opacity="1" fill-rule="nonzero"/></g></g><g clip-path="url(#8dbba0bdde)"><g clip-path="url(#2815124b10)"><path fill="#d3d3b3" d="M 12.378906 0.726562 L 39.589844 0.726562 L 39.589844 27.941406 L 12.378906 27.941406 Z M 12.378906 0.726562 " fill-opacity="1" fill-rule="nonzero"/></g></g><g clip-path="url(#18fbef6948)"><g clip-path="url(#035c9b048d)"><path fill="#d3d3b3" d="M 12.378906 0.726562 L 39.589844 0.726562 L 39.589844 27.941406 L 12.378906 27.941406 Z M 12.378906 0.726562 " fill-opacity="1" fill-rule="nonzero"/></g></g></svg>