<svg xmlns="http://www.w3.org/2000/svg" xmlns:xlink="http://www.w3.org/1999/xlink" width="95" zoomAndPan="magnify" viewBox="0 0 71.25 37.5" height="50" preserveAspectRatio="xMidYMid meet" version="1.0"><defs><clipPath id="4612f32b87"><path d="M 32.074219 12.722656 L 38.433594 12.722656 L 38.433594 16.914062 L 32.074219 16.914062 Z M 32.074219 12.722656 " clip-rule="nonzero"/></clipPath><clipPath id="7ccc8e9e76"><path d="M 35.3125 16.835938 L 36.285156 15.863281 L 36.402344 15.734375 L 38.410156 13.726562 L 37.4375 12.753906 L 35.308594 14.886719 L 33.175781 12.757812 L 32.207031 13.730469 Z M 35.3125 16.835938 " clip-rule="nonzero"/></clipPath><clipPath id="2bae7c5143"><path d="M 24.125 4.625 L 31.785156 4.625 L 31.785156 12.433594 L 24.125 12.433594 Z M 24.125 4.625 " clip-rule="nonzero"/></clipPath><clipPath id="10cc5c92c6"><path d="M 31.753906 11.324219 L 25.097656 4.667969 L 24.125 5.640625 L 30.78125 12.296875 Z M 31.753906 11.324219 " clip-rule="nonzero"/></clipPath><clipPath id="04bc3524aa"><path d="M 27.160156 2.746094 L 34.820312 2.746094 L 34.820312 10.40625 L 27.160156 10.40625 Z M 27.160156 2.746094 " clip-rule="nonzero"/></clipPath><clipPath id="d5f538254f"><path d="M 28.179688 2.816406 L 27.207031 3.785156 L 33.707031 10.285156 L 34.679688 9.3125 Z M 28.179688 2.816406 " clip-rule="nonzero"/></clipPath><clipPath id="63cffe208c"><path d="M 30.773438 1.589844 L 34.820312 1.589844 L 34.820312 5.492188 L 30.773438 5.492188 Z M 30.773438 1.589844 " clip-rule="nonzero"/></clipPath><clipPath id="efc14da5bd"><path d="M 34.71875 4.46875 L 31.867188 1.617188 L 30.894531 2.589844 L 33.746094 5.4375 Z M 34.71875 4.46875 " clip-rule="nonzero"/></clipPath><clipPath id="20238a4f27"><path d="M 38.722656 4.625 L 46.53125 4.625 L 46.53125 12.433594 L 38.722656 12.433594 Z M 38.722656 4.625 " clip-rule="nonzero"/></clipPath><clipPath id="7aaad13a95"><path d="M 39.835938 12.296875 L 46.492188 5.640625 L 45.519531 4.667969 L 38.863281 11.324219 Z M 39.835938 12.296875 " clip-rule="nonzero"/></clipPath><clipPath id="9dfd0bcfac"><path d="M 35.832031 2.746094 L 43.496094 2.746094 L 43.496094 10.40625 L 35.832031 10.40625 Z M 35.832031 2.746094 " clip-rule="nonzero"/></clipPath><clipPath id="0701b4b06a"><path d="M 36.910156 10.285156 L 43.410156 3.785156 L 42.4375 2.816406 L 35.941406 9.3125 Z M 36.910156 10.285156 " clip-rule="nonzero"/></clipPath><clipPath id="3dc2b808b4"><path d="M 35.832031 1.589844 L 39.734375 1.589844 L 39.734375 5.492188 L 35.832031 5.492188 Z M 35.832031 1.589844 " clip-rule="nonzero"/></clipPath><clipPath id="f0758a1942"><path d="M 39.722656 2.585938 L 38.75 1.613281 L 35.898438 4.46875 L 36.871094 5.441406 Z M 39.722656 2.585938 " clip-rule="nonzero"/></clipPath><clipPath id="0480615f7d"><path d="M 32.074219 19.804688 L 38.433594 19.804688 L 38.433594 24.140625 L 32.074219 24.140625 Z M 32.074219 19.804688 " clip-rule="nonzero"/></clipPath><clipPath id="562b8b9eb2"><path d="M 38.410156 23.050781 L 35.300781 19.945312 L 34.332031 20.914062 L 34.214844 21.042969 L 32.207031 23.050781 L 33.179688 24.023438 L 35.308594 21.890625 L 37.441406 24.023438 Z M 38.410156 23.050781 " clip-rule="nonzero"/></clipPath><clipPath id="4877293d3d"><path d="M 38.722656 24.429688 L 46.53125 24.429688 L 46.53125 32.234375 L 38.722656 32.234375 Z M 38.722656 24.429688 " clip-rule="nonzero"/></clipPath><clipPath id="feff5526ba"><path d="M 38.863281 25.453125 L 45.519531 32.109375 L 46.492188 31.136719 L 39.835938 24.480469 Z M 38.863281 25.453125 " clip-rule="nonzero"/></clipPath><clipPath id="2d117aafeb"><path d="M 35.832031 26.453125 L 43.496094 26.453125 L 43.496094 33.972656 L 35.832031 33.972656 Z M 35.832031 26.453125 " clip-rule="nonzero"/></clipPath><clipPath id="c853738114"><path d="M 42.4375 33.964844 L 43.410156 32.992188 L 36.914062 26.492188 L 35.941406 27.464844 Z M 42.4375 33.964844 " clip-rule="nonzero"/></clipPath><clipPath id="ea9eb1fd25"><path d="M 35.832031 31.222656 L 39.734375 31.222656 L 39.734375 35.273438 L 35.832031 35.273438 Z M 35.832031 31.222656 " clip-rule="nonzero"/></clipPath><clipPath id="b28d6eb70e"><path d="M 35.898438 32.3125 L 38.753906 35.164062 L 39.726562 34.191406 L 36.871094 31.339844 Z M 35.898438 32.3125 " clip-rule="nonzero"/></clipPath><clipPath id="35a7feef09"><path d="M 24.125 24.429688 L 31.785156 24.429688 L 31.785156 32.234375 L 24.125 32.234375 Z M 24.125 24.429688 " clip-rule="nonzero"/></clipPath><clipPath id="8725e91014"><path d="M 30.78125 24.484375 L 24.125 31.140625 L 25.097656 32.113281 L 31.753906 25.457031 Z M 30.78125 24.484375 " clip-rule="nonzero"/></clipPath><clipPath id="80a8c36372"><path d="M 27.160156 26.453125 L 34.820312 26.453125 L 34.820312 33.972656 L 27.160156 33.972656 Z M 27.160156 26.453125 " clip-rule="nonzero"/></clipPath><clipPath id="8cb6f989b4"><path d="M 33.707031 26.492188 L 27.207031 32.996094 L 28.179688 33.96875 L 34.679688 27.46875 Z M 33.707031 26.492188 " clip-rule="nonzero"/></clipPath><clipPath id="9aebce0cf8"><path d="M 30.773438 31.222656 L 34.820312 31.222656 L 34.820312 35.273438 L 30.773438 35.273438 Z M 30.773438 31.222656 " clip-rule="nonzero"/></clipPath><clipPath id="3e6f6c0f12"><path d="M 30.894531 34.191406 L 31.867188 35.164062 L 34.71875 32.3125 L 33.746094 31.339844 Z M 30.894531 34.191406 " clip-rule="nonzero"/></clipPath><clipPath id="68039c15b3"><path d="M 29.617188 15.179688 L 33.808594 15.179688 L 33.808594 21.539062 L 29.617188 21.539062 Z M 29.617188 15.179688 " clip-rule="nonzero"/></clipPath><clipPath id="6ef4fe66ee"><path d="M 30.644531 21.492188 L 33.753906 18.382812 L 32.78125 17.410156 L 32.652344 17.292969 L 30.644531 15.285156 L 29.671875 16.257812 L 31.804688 18.390625 L 29.675781 20.519531 Z M 30.644531 21.492188 " clip-rule="nonzero"/></clipPath><clipPath id="dabbd71a40"><path d="M 21.523438 21.828125 L 29.328125 21.828125 L 29.328125 29.632812 L 21.523438 29.632812 Z M 21.523438 21.828125 " clip-rule="nonzero"/></clipPath><clipPath id="c27676e486"><path d="M 28.246094 21.945312 L 21.589844 28.601562 L 22.5625 29.574219 L 29.21875 22.917969 Z M 28.246094 21.945312 " clip-rule="nonzero"/></clipPath><clipPath id="bdbefd86f2"><path d="M 19.644531 19 L 27.304688 19 L 27.304688 26.597656 L 19.644531 26.597656 Z M 19.644531 19 " clip-rule="nonzero"/></clipPath><clipPath id="f4fa559cc2"><path d="M 26.234375 19.019531 L 19.734375 25.519531 L 20.707031 26.492188 L 27.203125 19.992188 Z M 26.234375 19.019531 " clip-rule="nonzero"/></clipPath><clipPath id="b41619153f"><path d="M 18.484375 18.9375 L 22.390625 18.9375 L 22.390625 22.839844 L 18.484375 22.839844 Z M 18.484375 18.9375 " clip-rule="nonzero"/></clipPath><clipPath id="5df96d4151"><path d="M 21.386719 18.980469 L 18.535156 21.832031 L 19.507812 22.804688 L 22.359375 19.953125 Z M 21.386719 18.980469 " clip-rule="nonzero"/></clipPath><clipPath id="1a926171ef"><path d="M 21.523438 7.082031 L 29.328125 7.082031 L 29.328125 14.890625 L 21.523438 14.890625 Z M 21.523438 7.082031 " clip-rule="nonzero"/></clipPath><clipPath id="19373cd3be"><path d="M 22.558594 7.207031 L 21.585938 8.179688 L 28.246094 14.835938 L 29.21875 13.863281 Z M 22.558594 7.207031 " clip-rule="nonzero"/></clipPath><clipPath id="12b5014e42"><path d="M 19.644531 10.261719 L 27.304688 10.261719 L 27.304688 17.78125 L 19.644531 17.78125 Z M 19.644531 10.261719 " clip-rule="nonzero"/></clipPath><clipPath id="b4d4232947"><path d="M 20.703125 10.289062 L 19.730469 11.261719 L 26.234375 17.757812 L 27.203125 16.785156 Z M 20.703125 10.289062 " clip-rule="nonzero"/></clipPath><clipPath id="cade4f93e9"><path d="M 18.484375 13.878906 L 22.390625 13.878906 L 22.390625 17.925781 L 18.484375 17.925781 Z M 18.484375 13.878906 " clip-rule="nonzero"/></clipPath><clipPath id="2e08127feb"><path d="M 19.503906 13.972656 L 18.535156 14.945312 L 21.386719 17.796875 L 22.359375 16.828125 Z M 19.503906 13.972656 " clip-rule="nonzero"/></clipPath><clipPath id="2dc79af0ed"><path d="M 36.84375 15.179688 L 41 15.179688 L 41 21.539062 L 36.84375 21.539062 Z M 36.84375 15.179688 " clip-rule="nonzero"/></clipPath><clipPath id="08582690ea"><path d="M 39.96875 15.289062 L 36.863281 18.394531 L 37.835938 19.367188 L 37.964844 19.484375 L 39.972656 21.492188 L 40.945312 20.519531 L 38.8125 18.390625 L 40.945312 16.257812 Z M 39.96875 15.289062 " clip-rule="nonzero"/></clipPath><clipPath id="8ade78127a"><path d="M 41.328125 7.082031 L 49.132812 7.082031 L 49.132812 14.890625 L 41.328125 14.890625 Z M 41.328125 7.082031 " clip-rule="nonzero"/></clipPath><clipPath id="bb7f1ad6e0"><path d="M 42.375 14.835938 L 49.03125 8.179688 L 48.058594 7.207031 L 41.402344 13.863281 Z M 42.375 14.835938 " clip-rule="nonzero"/></clipPath><clipPath id="dad8349267"><path d="M 43.351562 10.261719 L 51 10.261719 L 51 17.78125 L 43.351562 17.78125 Z M 43.351562 10.261719 " clip-rule="nonzero"/></clipPath><clipPath id="ef2b1ae6e1"><path d="M 44.386719 17.757812 L 50.882812 11.261719 L 49.910156 10.289062 L 43.414062 16.785156 Z M 44.386719 17.757812 " clip-rule="nonzero"/></clipPath><clipPath id="359ffd9c3d"><path d="M 48.121094 13.878906 L 52.167969 13.878906 L 52.167969 17.925781 L 48.121094 17.925781 Z M 48.121094 13.878906 " clip-rule="nonzero"/></clipPath><clipPath id="5319635dfd"><path d="M 49.230469 17.796875 L 52.082031 14.945312 L 51.109375 13.972656 L 48.257812 16.828125 Z M 49.230469 17.796875 " clip-rule="nonzero"/></clipPath><clipPath id="2221b26e50"><path d="M 41.328125 21.828125 L 49.132812 21.828125 L 49.132812 29.632812 L 41.328125 29.632812 Z M 41.328125 21.828125 " clip-rule="nonzero"/></clipPath><clipPath id="5f335c12de"><path d="M 48.058594 29.574219 L 49.03125 28.601562 L 42.375 21.945312 L 41.402344 22.917969 Z M 48.058594 29.574219 " clip-rule="nonzero"/></clipPath><clipPath id="6b35b82f49"><path d="M 43.351562 19 L 51 19 L 51 26.597656 L 43.351562 26.597656 Z M 43.351562 19 " clip-rule="nonzero"/></clipPath><clipPath id="f1cf345f75"><path d="M 49.910156 26.492188 L 50.882812 25.519531 L 44.386719 19.019531 L 43.414062 19.992188 Z M 49.910156 26.492188 " clip-rule="nonzero"/></clipPath><clipPath id="32124d47ff"><path d="M 48.121094 18.9375 L 52.167969 18.9375 L 52.167969 22.839844 L 48.121094 22.839844 Z M 48.121094 18.9375 " clip-rule="nonzero"/></clipPath><clipPath id="c5c43b568c"><path d="M 48.261719 19.953125 L 51.113281 22.804688 L 52.085938 21.832031 L 49.234375 18.980469 Z M 48.261719 19.953125 " clip-rule="nonzero"/></clipPath><clipPath id="1799ae83d7"><path d="M 34.675781 35 L 35.832031 35 L 35.832031 35.996094 L 34.675781 35.996094 Z M 34.675781 35 " clip-rule="nonzero"/></clipPath><clipPath id="392a0c42f1"><path d="M 35.121094 35.007812 L 34.777344 35.351562 L 34.777344 35.617188 L 35.121094 35.960938 L 35.386719 35.960938 L 35.730469 35.617188 L 35.730469 35.351562 L 35.386719 35.007812 Z M 35.121094 35.007812 " clip-rule="nonzero"/></clipPath><clipPath id="74d200612e"><path d="M 34.675781 1.011719 L 35.832031 1.011719 L 35.832031 2 L 34.675781 2 Z M 34.675781 1.011719 " clip-rule="nonzero"/></clipPath><clipPath id="2d8fc3c2fb"><path d="M 35.121094 1.046875 L 34.777344 1.390625 L 34.777344 1.65625 L 35.121094 2 L 35.386719 2 L 35.730469 1.65625 L 35.730469 1.390625 L 35.386719 1.046875 Z M 35.121094 1.046875 " clip-rule="nonzero"/></clipPath><clipPath id="a95c3c0754"><path d="M 17.761719 18 L 18.777344 18 L 18.777344 19 L 17.761719 19 Z M 17.761719 18 " clip-rule="nonzero"/></clipPath><clipPath id="9436280a73"><path d="M 18.144531 18.027344 L 17.800781 18.371094 L 17.800781 18.636719 L 18.144531 18.980469 L 18.410156 18.980469 L 18.753906 18.636719 L 18.753906 18.371094 L 18.410156 18.027344 Z M 18.144531 18.027344 " clip-rule="nonzero"/></clipPath><clipPath id="4d3897031c"><path d="M 51.734375 18 L 52.746094 18 L 52.746094 19 L 51.734375 19 Z M 51.734375 18 " clip-rule="nonzero"/></clipPath><clipPath id="fbe440ea40"><path d="M 52.367188 18.027344 L 52.101562 18.027344 L 51.757812 18.371094 L 51.757812 18.636719 L 52.101562 18.980469 L 52.367188 18.980469 L 52.710938 18.636719 L 52.710938 18.371094 Z M 52.367188 18.027344 " clip-rule="nonzero"/></clipPath></defs><g clip-path="url(#4612f32b87)"><g clip-path="url(#7ccc8e9e76)"><path fill="#45312c" d="M 16.75 0 L 53.757812 0 L 53.757812 37.007812 L 16.75 37.007812 Z M 16.75 0 " fill-opacity="1" fill-rule="nonzero"/></g></g><g clip-path="url(#2bae7c5143)"><g clip-path="url(#10cc5c92c6)"><path fill="#45312c" d="M 16.75 0 L 53.757812 0 L 53.757812 37.007812 L 16.75 37.007812 Z M 16.75 0 " fill-opacity="1" fill-rule="nonzero"/></g></g><g clip-path="url(#04bc3524aa)"><g clip-path="url(#d5f538254f)"><path fill="#45312c" d="M 16.75 0 L 53.757812 0 L 53.757812 37.007812 L 16.75 37.007812 Z M 16.75 0 " fill-opacity="1" fill-rule="nonzero"/></g></g><g clip-path="url(#63cffe208c)"><g clip-path="url(#efc14da5bd)"><path fill="#45312c" d="M 16.75 0 L 53.757812 0 L 53.757812 37.007812 L 16.75 37.007812 Z M 16.75 0 " fill-opacity="1" fill-rule="nonzero"/></g></g><g clip-path="url(#20238a4f27)"><g clip-path="url(#7aaad13a95)"><path fill="#45312c" d="M 16.75 0 L 53.757812 0 L 53.757812 37.007812 L 16.75 37.007812 Z M 16.75 0 " fill-opacity="1" fill-rule="nonzero"/></g></g><g clip-path="url(#9dfd0bcfac)"><g clip-path="url(#0701b4b06a)"><path fill="#45312c" d="M 16.75 0 L 53.757812 0 L 53.757812 37.007812 L 16.75 37.007812 Z M 16.75 0 " fill-opacity="1" fill-rule="nonzero"/></g></g><g clip-path="url(#3dc2b808b4)"><g clip-path="url(#f0758a1942)"><path fill="#45312c" d="M 16.75 0 L 53.757812 0 L 53.757812 37.007812 L 16.75 37.007812 Z M 16.75 0 " fill-opacity="1" fill-rule="nonzero"/></g></g><g clip-path="url(#0480615f7d)"><g clip-path="url(#562b8b9eb2)"><path fill="#45312c" d="M 16.75 0 L 53.757812 0 L 53.757812 37.007812 L 16.75 37.007812 Z M 16.75 0 " fill-opacity="1" fill-rule="nonzero"/></g></g><g clip-path="url(#4877293d3d)"><g clip-path="url(#feff5526ba)"><path fill="#45312c" d="M 16.75 0 L 53.757812 0 L 53.757812 37.007812 L 16.75 37.007812 Z M 16.75 0 " fill-opacity="1" fill-rule="nonzero"/></g></g><g clip-path="url(#2d117aafeb)"><g clip-path="url(#c853738114)"><path fill="#45312c" d="M 16.75 0 L 53.757812 0 L 53.757812 37.007812 L 16.75 37.007812 Z M 16.75 0 " fill-opacity="1" fill-rule="nonzero"/></g></g><g clip-path="url(#ea9eb1fd25)"><g clip-path="url(#b28d6eb70e)"><path fill="#45312c" d="M 16.75 0 L 53.757812 0 L 53.757812 37.007812 L 16.75 37.007812 Z M 16.75 0 " fill-opacity="1" fill-rule="nonzero"/></g></g><g clip-path="url(#35a7feef09)"><g clip-path="url(#8725e91014)"><path fill="#45312c" d="M 16.75 0 L 53.757812 0 L 53.757812 37.007812 L 16.75 37.007812 Z M 16.75 0 " fill-opacity="1" fill-rule="nonzero"/></g></g><g clip-path="url(#80a8c36372)"><g clip-path="url(#8cb6f989b4)"><path fill="#45312c" d="M 16.75 0 L 53.757812 0 L 53.757812 37.007812 L 16.75 37.007812 Z M 16.75 0 " fill-opacity="1" fill-rule="nonzero"/></g></g><g clip-path="url(#9aebce0cf8)"><g clip-path="url(#3e6f6c0f12)"><path fill="#45312c" d="M 16.75 0 L 53.757812 0 L 53.757812 37.007812 L 16.75 37.007812 Z M 16.75 0 " fill-opacity="1" fill-rule="nonzero"/></g></g><g clip-path="url(#68039c15b3)"><g clip-path="url(#6ef4fe66ee)"><path fill="#45312c" d="M 16.75 0 L 53.757812 0 L 53.757812 37.007812 L 16.75 37.007812 Z M 16.75 0 " fill-opacity="1" fill-rule="nonzero"/></g></g><g clip-path="url(#dabbd71a40)"><g clip-path="url(#c27676e486)"><path fill="#45312c" d="M 16.75 0 L 53.757812 0 L 53.757812 37.007812 L 16.75 37.007812 Z M 16.75 0 " fill-opacity="1" fill-rule="nonzero"/></g></g><g clip-path="url(#bdbefd86f2)"><g clip-path="url(#f4fa559cc2)"><path fill="#45312c" d="M 16.75 0 L 53.757812 0 L 53.757812 37.007812 L 16.75 37.007812 Z M 16.75 0 " fill-opacity="1" fill-rule="nonzero"/></g></g><g clip-path="url(#b41619153f)"><g clip-path="url(#5df96d4151)"><path fill="#45312c" d="M 16.75 0 L 53.757812 0 L 53.757812 37.007812 L 16.75 37.007812 Z M 16.75 0 " fill-opacity="1" fill-rule="nonzero"/></g></g><g clip-path="url(#1a926171ef)"><g clip-path="url(#19373cd3be)"><path fill="#45312c" d="M 16.75 0 L 53.757812 0 L 53.757812 37.007812 L 16.75 37.007812 Z M 16.75 0 " fill-opacity="1" fill-rule="nonzero"/></g></g><g clip-path="url(#12b5014e42)"><g clip-path="url(#b4d4232947)"><path fill="#45312c" d="M 16.75 0 L 53.757812 0 L 53.757812 37.007812 L 16.75 37.007812 Z M 16.75 0 " fill-opacity="1" fill-rule="nonzero"/></g></g><g clip-path="url(#cade4f93e9)"><g clip-path="url(#2e08127feb)"><path fill="#45312c" d="M 16.75 0 L 53.757812 0 L 53.757812 37.007812 L 16.75 37.007812 Z M 16.75 0 " fill-opacity="1" fill-rule="nonzero"/></g></g><g clip-path="url(#2dc79af0ed)"><g clip-path="url(#08582690ea)"><path fill="#45312c" d="M 16.75 0 L 53.757812 0 L 53.757812 37.007812 L 16.75 37.007812 Z M 16.75 0 " fill-opacity="1" fill-rule="nonzero"/></g></g><g clip-path="url(#8ade78127a)"><g clip-path="url(#bb7f1ad6e0)"><path fill="#45312c" d="M 16.75 0 L 53.757812 0 L 53.757812 37.007812 L 16.75 37.007812 Z M 16.75 0 " fill-opacity="1" fill-rule="nonzero"/></g></g><g clip-path="url(#dad8349267)"><g clip-path="url(#ef2b1ae6e1)"><path fill="#45312c" d="M 16.75 0 L 53.757812 0 L 53.757812 37.007812 L 16.75 37.007812 Z M 16.75 0 " fill-opacity="1" fill-rule="nonzero"/></g></g><g clip-path="url(#359ffd9c3d)"><g clip-path="url(#5319635dfd)"><path fill="#45312c" d="M 16.75 0 L 53.757812 0 L 53.757812 37.007812 L 16.75 37.007812 Z M 16.75 0 " fill-opacity="1" fill-rule="nonzero"/></g></g><g clip-path="url(#2221b26e50)"><g clip-path="url(#5f335c12de)"><path fill="#45312c" d="M 16.75 0 L 53.757812 0 L 53.757812 37.007812 L 16.75 37.007812 Z M 16.75 0 " fill-opacity="1" fill-rule="nonzero"/></g></g><g clip-path="url(#6b35b82f49)"><g clip-path="url(#f1cf345f75)"><path fill="#45312c" d="M 16.75 0 L 53.757812 0 L 53.757812 37.007812 L 16.75 37.007812 Z M 16.75 0 " fill-opacity="1" fill-rule="nonzero"/></g></g><g clip-path="url(#32124d47ff)"><g clip-path="url(#c5c43b568c)"><path fill="#45312c" d="M 16.75 0 L 53.757812 0 L 53.757812 37.007812 L 16.75 37.007812 Z M 16.75 0 " fill-opacity="1" fill-rule="nonzero"/></g></g><g clip-path="url(#1799ae83d7)"><g clip-path="url(#392a0c42f1)"><path fill="#45312c" d="M 16.75 0 L 53.757812 0 L 53.757812 37.007812 L 16.75 37.007812 Z M 16.75 0 " fill-opacity="1" fill-rule="nonzero"/></g></g><g clip-path="url(#74d200612e)"><g clip-path="url(#2d8fc3c2fb)"><path fill="#45312c" d="M 16.75 0 L 53.757812 0 L 53.757812 37.007812 L 16.75 37.007812 Z M 16.75 0 " fill-opacity="1" fill-rule="nonzero"/></g></g><g clip-path="url(#a95c3c0754)"><g clip-path="url(#9436280a73)"><path fill="#45312c" d="M 16.75 0 L 53.757812 0 L 53.757812 37.007812 L 16.75 37.007812 Z M 16.75 0 " fill-opacity="1" fill-rule="nonzero"/></g></g><g clip-path="url(#4d3897031c)"><g clip-path="url(#fbe440ea40)"><path fill="#45312c" d="M 16.75 0 L 53.757812 0 L 53.757812 37.007812 L 16.75 37.007812 Z M 16.75 0 " fill-opacity="1" fill-rule="nonzero"/></g></g></svg>