<svg xmlns="http://www.w3.org/2000/svg" xmlns:xlink="http://www.w3.org/1999/xlink" width="71" zoomAndPan="magnify" viewBox="0 0 53.25 30.000001" height="40" preserveAspectRatio="xMidYMid meet" version="1.0"><defs><clipPath id="1548d26c75"><path d="M 6.863281 0.667969 L 45.328125 0.667969 L 45.328125 28.25 L 6.863281 28.25 Z M 6.863281 0.667969 " clip-rule="nonzero"/></clipPath></defs><g clip-path="url(#1548d26c75)"><path fill="#6b6448" d="M 25.804688 11.800781 C 23.90625 9.164062 20.8125 7.449219 17.316406 7.449219 C 17.011719 7.449219 16.707031 7.460938 16.410156 7.488281 C 16.894531 4.992188 17.894531 2.683594 19.289062 0.667969 C 12.15625 3.039062 6.988281 9.714844 6.867188 17.613281 C 6.867188 17.707031 6.863281 17.804688 6.863281 17.898438 C 6.863281 17.996094 6.867188 18.09375 6.867188 18.1875 C 7.019531 23.828125 11.636719 28.351562 17.316406 28.351562 C 19.839844 28.351562 22.15625 27.457031 23.964844 25.96875 C 24.871094 25.21875 25.648438 24.320312 26.261719 23.3125 C 27.21875 21.734375 27.769531 19.882812 27.769531 17.898438 C 27.769531 15.621094 27.042969 13.515625 25.804688 11.800781 Z M 45.65625 17.898438 C 45.65625 21.148438 44.175781 24.050781 41.851562 25.96875 C 40.042969 27.457031 37.726562 28.351562 35.203125 28.351562 C 32.21875 28.351562 29.527344 27.101562 27.625 25.097656 C 29.082031 23.007812 29.882812 20.507812 29.882812 17.898438 C 29.882812 14.726562 28.703125 11.824219 26.753906 9.609375 C 28.90625 5.417969 32.644531 2.175781 37.179688 0.667969 C 35.78125 2.683594 34.78125 4.992188 34.296875 7.488281 C 34.59375 7.460938 34.898438 7.449219 35.203125 7.449219 C 40.976562 7.449219 45.65625 12.128906 45.65625 17.898438 " fill-opacity="1" fill-rule="nonzero"/></g></svg>